<?xml version="1.0" encoding="UTF-8" standalone="no"?>
<svg
   xmlns:dc="http://purl.org/dc/elements/1.1/"
   xmlns:cc="http://creativecommons.org/ns#"
   xmlns:rdf="http://www.w3.org/1999/02/22-rdf-syntax-ns#"
   xmlns:svg="http://www.w3.org/2000/svg"
   xmlns="http://www.w3.org/2000/svg"
   version="1.1"
   width="32"
   height="32"
   viewBox="0 0 32 32"
   id="svg2">
  <metadata
     id="metadata10">
    <rdf:RDF>
      <cc:Work
         rdf:about="">
        <dc:format>image/svg+xml</dc:format>
        <dc:type
           rdf:resource="http://purl.org/dc/dcmitype/StillImage" />
        <dc:title></dc:title>
      </cc:Work>
    </rdf:RDF>
  </metadata>
  <defs
     id="defs8" />
  <rect
     ry="3.6298823"
     rx="3.6298823"
     y="1.2957726"
     x="1.2957726"
     height="29.408455"
     width="29.408455"
     id="rect4150"
     style="opacity:1;fill:#000000;fill-opacity:1;stroke:#000000;stroke-width:0.27224118;stroke-linecap:round;stroke-linejoin:round;stroke-miterlimit:4;stroke-dasharray:none;stroke-opacity:1" />
  <g
     transform="translate(-1.1035246,-1.460492)"
     id="text4152"
     style="font-style:normal;font-weight:normal;font-size:40px;line-height:125%;font-family:sans-serif;letter-spacing:0px;word-spacing:0px;fill:#000000;fill-opacity:1;stroke:none;stroke-width:1px;stroke-linecap:butt;stroke-linejoin:miter;stroke-opacity:1">
    <path
       id="path4251"
       style="fill:#ffffff;fill-opacity:1"
       d="m 11.043954,18.022894 0,2.949219 q 0.615235,-0.08789 0.957032,-0.46875 0.341796,-0.390625 0.341796,-0.986328 0,-0.605469 -0.341796,-0.986329 -0.332032,-0.390625 -0.957032,-0.507812 z m -1.3769528,-2.822266 0,-2.763672 q -0.6054687,0.07813 -0.9179687,0.410157 -0.3027344,0.322265 -0.3027344,0.888672 0,0.55664 0.3027344,0.927734 0.3125,0.371094 0.9179687,0.537109 z m 1.3769528,10.917969 -1.3769528,0 -0.00977,-2.939453 q -0.849605,-0.0293 -1.7773393,-0.253906 -0.9277344,-0.22461 -1.9335938,-0.644532 l 0,-2.558593 q 1.0058594,0.595703 1.9433594,0.917968 0.9472656,0.322266 1.7773437,0.332032 l 0,-3.212891 q -1.9238281,-0.380859 -2.8613281,-1.308594 -0.9375,-0.9375 -0.9375,-2.470703 0,-1.630859 0.9960938,-2.597656 0.9960937,-0.966797 2.8027343,-1.083984 l 0,-2.3144536 1.3769528,0 0.0098,2.3144536 q 0.693359,0.03906 1.435547,0.175781 0.751953,0.136719 1.533203,0.380859 l 0,2.5 q -0.605469,-0.390625 -1.347656,-0.625 -0.742188,-0.234375 -1.63086,-0.292969 l 0,2.998047 q 1.923828,0.302735 2.900391,1.31836 0.986328,1.005859 0.986328,2.685547 0,1.601562 -1.064453,2.626953 -1.054688,1.02539 -2.8125,1.113281 l -0.0098,2.939453 z" />
    <path
       id="path4253"
       style="fill:#007400;fill-opacity:1"
       d="m 28.338876,26.040472 0,1.855469 -12.041015,0 0,-1.855469 12.041015,0 z" />
  </g>
  <rect
     ry="3.4950249"
     rx="3.4972034"
     y="1.8063204"
     x="1.8298696"
     height="28.31587"
     width="28.333521"
     id="rect4150-3"
     style="opacity:1;fill:none;fill-opacity:1;stroke:#ffffff;stroke-width:0.272;stroke-linecap:round;stroke-linejoin:round;stroke-miterlimit:4;stroke-dasharray:none;stroke-opacity:1" />
</svg>
