<?xml version="1.0" encoding="UTF-8" standalone="no"?>
<!-- Generated by IcoMoon.io -->

<svg
   xmlns:dc="http://purl.org/dc/elements/1.1/"
   xmlns:cc="http://creativecommons.org/ns#"
   xmlns:rdf="http://www.w3.org/1999/02/22-rdf-syntax-ns#"
   xmlns:svg="http://www.w3.org/2000/svg"
   xmlns="http://www.w3.org/2000/svg"
   xmlns:sodipodi="http://sodipodi.sourceforge.net/DTD/sodipodi-0.dtd"
   xmlns:inkscape="http://www.inkscape.org/namespaces/inkscape"
   version="1.1"
   width="32"
   height="32"
   viewBox="0 0 32 32"
   id="svg2"
   inkscape:version="0.91 r13725"
   sodipodi:docname="python-color.svg">
  <metadata
     id="metadata10">
    <rdf:RDF>
      <cc:Work
         rdf:about="">
        <dc:format>image/svg+xml</dc:format>
        <dc:type
           rdf:resource="http://purl.org/dc/dcmitype/StillImage" />
        <dc:title></dc:title>
      </cc:Work>
    </rdf:RDF>
  </metadata>
  <defs
     id="defs8" />
  <sodipodi:namedview
     pagecolor="#ffffff"
     bordercolor="#666666"
     borderopacity="1"
     objecttolerance="10"
     gridtolerance="10"
     guidetolerance="10"
     inkscape:pageopacity="0"
     inkscape:pageshadow="2"
     inkscape:window-width="1366"
     inkscape:window-height="717"
     id="namedview6"
     showgrid="false"
     inkscape:zoom="7.375"
     inkscape:cx="16"
     inkscape:cy="16"
     inkscape:window-x="0"
     inkscape:window-y="0"
     inkscape:window-maximized="1"
     inkscape:current-layer="svg2" />
  <path
     style="fill:#376f9f;fill-opacity:1"
     d="M 16.042969 0.53320312 C 14.776733 0.54003313 13.566029 0.64743617 12.501953 0.8359375 C 9.3670939 1.389148 8.7988281 2.5478325 8.7988281 4.6855469 L 8.7988281 7.5097656 L 16.205078 7.5097656 L 16.205078 8.4511719 L 6.0175781 8.4511719 C 3.8648382 8.4511719 1.978763 9.7442204 1.3886719 12.207031 C 0.70842792 15.029087 0.67837702 16.78997 1.3886719 19.736328 C 1.9145633 21.930047 3.1734319 23.492187 5.3261719 23.492188 L 7.8730469 23.492188 L 7.8730469 20.107422 C 7.8730469 17.662368 9.9899679 15.505859 12.501953 15.505859 L 12.501953 15.503906 L 19.902344 15.503906 C 21.9622 15.503906 23.605469 13.809652 23.605469 11.740234 L 23.605469 4.6855469 C 23.605469 2.677598 21.913025 1.1705957 19.902344 0.8359375 C 18.629277 0.62421499 17.309207 0.52637336 16.042969 0.53320312 z M 12.035156 2.8046875 C 12.800089 2.8046875 13.425781 3.4393787 13.425781 4.2207031 C 13.425781 4.9992956 12.801455 5.6269531 12.035156 5.6269531 C 11.267491 5.6269531 10.644531 4.9979296 10.644531 4.2207031 C 10.644531 3.4393787 11.266125 2.8046875 12.035156 2.8046875 z "
     id="path4144" />
  <path
     style="fill:#ffcf3f;fill-opacity:1"
     d="M 24.529297 8.4492188 L 24.529297 11.738281 C 24.529297 14.288513 22.365934 16.435547 19.900391 16.435547 L 12.501953 16.435547 C 10.47488 16.435547 8.796875 18.171367 8.796875 20.201172 L 8.796875 27.253906 C 8.796875 29.261855 10.543179 30.443099 12.501953 31.019531 C 14.847292 31.709337 17.094727 31.833638 19.900391 31.019531 C 21.764915 30.47998 23.605469 29.39162 23.605469 27.253906 L 23.605469 24.431641 L 16.205078 24.431641 L 16.205078 23.490234 L 27.308594 23.490234 C 29.461335 23.490234 30.263765 21.987608 31.013672 19.732422 C 31.786801 17.41167 31.754018 15.182853 31.013672 12.205078 L 31.011719 12.205078 C 30.480364 10.0619 29.465433 8.4492188 27.308594 8.4492188 L 24.529297 8.4492188 z M 20.367188 26.314453 C 21.134853 26.314453 21.757813 26.943476 21.757812 27.720703 C 21.757812 28.502028 21.134852 29.138672 20.367188 29.138672 C 19.602256 29.138672 18.976563 28.502028 18.976562 27.720703 C 18.976562 26.94211 19.600889 26.314453 20.367188 26.314453 z "
     id="path4140" />
</svg>
