<?xml version="1.0" encoding="UTF-8" standalone="no"?>
<svg
   xmlns:dc="http://purl.org/dc/elements/1.1/"
   xmlns:cc="http://creativecommons.org/ns#"
   xmlns:rdf="http://www.w3.org/1999/02/22-rdf-syntax-ns#"
   xmlns:svg="http://www.w3.org/2000/svg"
   xmlns="http://www.w3.org/2000/svg"
   xmlns:sodipodi="http://sodipodi.sourceforge.net/DTD/sodipodi-0.dtd"
   xmlns:inkscape="http://www.inkscape.org/namespaces/inkscape"
   width="32pt"
   height="32pt"
   viewBox="0 0 32 32"
   version="1.1"
   id="svg19"
   sodipodi:docname="r.svg"
   inkscape:version="0.92.4 (unknown)">
  <metadata
     id="metadata23">
    <rdf:RDF>
      <cc:Work
         rdf:about="">
        <dc:format>image/svg+xml</dc:format>
        <dc:type
           rdf:resource="http://purl.org/dc/dcmitype/StillImage" />
      </cc:Work>
    </rdf:RDF>
  </metadata>
  <sodipodi:namedview
     pagecolor="#ffffff"
     bordercolor="#666666"
     borderopacity="1"
     objecttolerance="10"
     gridtolerance="10"
     guidetolerance="10"
     inkscape:pageopacity="0"
     inkscape:pageshadow="2"
     inkscape:window-width="640"
     inkscape:window-height="480"
     id="namedview21"
     showgrid="false"
     inkscape:zoom="5.53125"
     inkscape:cx="21.333333"
     inkscape:cy="21.333333"
     inkscape:window-x="67"
     inkscape:window-y="27"
     inkscape:window-maximized="0"
     inkscape:current-layer="svg19" />
  <defs
     id="defs12">
    <linearGradient
       id="linear0"
       gradientUnits="userSpaceOnUse"
       x1="0"
       y1="0"
       x2="1"
       y2="1"
       gradientTransform="matrix(31.871094,0,0,27.546875,0.0390625,0.171875)">
      <stop
         id="stop2"
         style="stop-color:rgb(79.607843%,80.784314%,81.568627%);stop-opacity:1;;opacity:1"
         offset="0" />
      <stop
         id="stop4"
         style="stop-color:rgb(51.764706%,51.372549%,54.509804%);stop-opacity:1;;opacity:1"
         offset="1" />
    </linearGradient>
    <linearGradient
       id="linear1"
       gradientUnits="userSpaceOnUse"
       x1="0"
       y1="0"
       x2="1"
       y2="1"
       gradientTransform="matrix(17.589844,0,0,23.167969,13.171875,8.722656)">
      <stop
         id="stop7"
         style="stop-color:rgb(15.294118%,42.745098%,76.470588%);stop-opacity:1;;opacity:1"
         offset="0" />
      <stop
         id="stop9"
         style="stop-color:rgb(8.627451%,36.078431%,66.666667%);stop-opacity:1;;opacity:1"
         offset="1" />
    </linearGradient>
    <linearGradient
       gradientTransform="matrix(31.871094,0,0,27.546875,0.0390625,0.171875)"
       y2="1"
       x2="1"
       y1="0"
       x1="0"
       gradientUnits="userSpaceOnUse"
       id="linear0-349">
      <stop
         id="stop3736"
         style="stop-color:rgb(79.607843%,80.784314%,81.568627%);stop-opacity:1;;opacity:1"
         offset="0" />
      <stop
         id="stop3738"
         style="stop-color:rgb(51.764706%,51.372549%,54.509804%);stop-opacity:1;;opacity:1"
         offset="1" />
    </linearGradient>
    <linearGradient
       gradientTransform="matrix(17.589844,0,0,23.167969,13.171875,8.722656)"
       y2="1"
       x2="1"
       y1="0"
       x1="0"
       gradientUnits="userSpaceOnUse"
       id="linear1-683">
      <stop
         id="stop3741"
         style="stop-color:rgb(15.294118%,42.745098%,76.470588%);stop-opacity:1;;opacity:1"
         offset="0" />
      <stop
         id="stop3743"
         style="stop-color:rgb(8.627451%,36.078431%,66.666667%);stop-opacity:1;;opacity:1"
         offset="1" />
    </linearGradient>
  </defs>
  <g
     id="surface1">
    <path
       id="path14"
       d="M 15.976562 27.71875 C 7.175781 27.71875 0.0390625 21.550781 0.0390625 13.945312 C 0.0390625 6.335938 7.175781 0.171875 15.976562 0.171875 C 24.777344 0.171875 31.910156 6.335938 31.910156 13.945312 C 31.910156 21.550781 24.777344 27.71875 15.976562 27.71875 Z M 18.414062 5.554688 C 11.726562 5.554688 6.300781 9.773438 6.300781 14.972656 C 6.300781 20.171875 11.726562 24.386719 18.414062 24.386719 C 25.105469 24.386719 30.042969 21.507812 30.042969 14.972656 C 30.042969 8.441406 25.105469 5.554688 18.414062 5.554688 Z M 18.414062 5.554688 "
       style=" stroke:none;fill-rule:evenodd;fill:url(#linear0-349);;opacity:1" />
    <path
       id="path16"
       d="M 24.308594 21.503906 C 24.308594 21.503906 25.273438 21.878906 25.835938 22.246094 C 26.027344 22.371094 26.363281 22.625 26.609375 22.960938 C 26.84375 23.285156 26.960938 23.613281 26.960938 23.613281 L 30.761719 31.886719 L 24.617188 31.890625 L 21.746094 24.925781 C 21.746094 24.925781 21.15625 23.621094 20.796875 23.246094 C 20.492188 22.929688 20.363281 22.816406 20.066406 22.816406 C 19.859375 22.816406 18.605469 22.816406 18.605469 22.816406 L 18.609375 31.882812 L 13.171875 31.886719 L 13.171875 8.722656 L 24.089844 8.722656 C 24.089844 8.722656 29.0625 8.839844 29.0625 14.945312 C 29.0625 21.050781 24.308594 21.503906 24.308594 21.503906 Z M 21.945312 13.75 L 18.652344 13.746094 L 18.652344 17.683594 L 21.945312 17.683594 C 21.945312 17.683594 23.46875 17.675781 23.46875 15.679688 C 23.46875 13.640625 21.945312 13.75 21.945312 13.75 Z M 21.945312 13.75 "
       style=" stroke:none;fill-rule:evenodd;fill:url(#linear1-683);;opacity:1" />
  </g>
</svg>
