<?xml version="1.0" encoding="UTF-8" standalone="no"?>
<!-- Generated by IcoMoon.io -->

<svg
   xmlns:dc="http://purl.org/dc/elements/1.1/"
   xmlns:cc="http://creativecommons.org/ns#"
   xmlns:rdf="http://www.w3.org/1999/02/22-rdf-syntax-ns#"
   xmlns:svg="http://www.w3.org/2000/svg"
   xmlns="http://www.w3.org/2000/svg"
   xmlns:sodipodi="http://sodipodi.sourceforge.net/DTD/sodipodi-0.dtd"
   xmlns:inkscape="http://www.inkscape.org/namespaces/inkscape"
   version="1.1"
   width="32"
   height="32"
   viewBox="0 0 32 32"
   id="svg42"
   inkscape:version="0.91 r13725"
   sodipodi:docname="ruby-color.svg">
  <metadata
     id="metadata50">
    <rdf:RDF>
      <cc:Work
         rdf:about="">
        <dc:format>image/svg+xml</dc:format>
        <dc:type
           rdf:resource="http://purl.org/dc/dcmitype/StillImage" />
        <dc:title></dc:title>
      </cc:Work>
    </rdf:RDF>
  </metadata>
  <defs
     id="defs48" />
  <sodipodi:namedview
     pagecolor="#ffffff"
     bordercolor="#666666"
     borderopacity="1"
     objecttolerance="10"
     gridtolerance="10"
     guidetolerance="10"
     inkscape:pageopacity="0"
     inkscape:pageshadow="2"
     inkscape:window-width="1366"
     inkscape:window-height="717"
     id="namedview46"
     showgrid="false"
     inkscape:zoom="7.375"
     inkscape:cx="16"
     inkscape:cy="16"
     inkscape:window-x="0"
     inkscape:window-y="0"
     inkscape:window-maximized="1"
     inkscape:current-layer="svg42" />
  <path
     style="fill:#990e16;fill-opacity:1"
     d="m 8.9391216,27.921011 c 6.9183914,0.943973 13.7132204,1.872363 20.6427444,2.818563 -2.361047,-3.930627 -4.66087,-7.761067 -6.979617,-11.622676 -4.542873,2.927654 -9.043445,5.827479 -13.6620143,8.804113 z"
     id="path4157" />
  <path
     style="fill:#990e16;fill-opacity:1"
     d="m 31.53549,6.1639766 c -0.61002,0.9161442 -1.221154,1.8311753 -1.830061,2.7473194 -2.091659,3.14695 -4.183318,6.2939 -6.272749,9.441963 -0.116885,0.175882 -0.267164,0.315029 -0.103526,0.584417 2.019302,3.333964 4.021906,6.677947 6.030077,10.018589 0.317255,0.527646 0.636736,1.053065 1.047499,1.55956 0.405196,-8.108377 0.811506,-16.216754 1.217815,-24.3251322 -0.03006,-0.0089 -0.06011,-0.017811 -0.08905,-0.025603 z"
     id="path4155" />
  <path
     style="fill:#ec1622;fill-opacity:1"
     d="m 3.9732414,16.558819 c 0.09462,0.09017 0.3295002,0.141373 0.4397047,0.08794 1.936927,-0.951765 3.886099,-1.882381 5.7796119,-2.913182 0.617813,-0.336179 1.09314,-0.937295 1.625238,-1.425979 1.762158,-1.616333 3.52209,-3.2360046 5.280909,-4.8556763 0.107978,-0.099072 0.23488,-0.1959191 0.299444,-0.3205948 0.632285,-1.2345128 1.252324,-2.4757045 1.89574,-3.7525179 -0.766978,-0.2883127 -1.49277,-0.5699463 -2.22858,-0.8259769 -0.09907,-0.034509 -0.257143,0.034508 -0.365121,0.09462 C 14.997028,3.5981048 13.262699,4.4986645 11.614084,5.536145 10.789221,6.0548853 10.116862,6.8207506 9.386619,7.4864302 8.2088778,8.5606455 7.0333635,9.6381998 5.8734336,10.73134 c -0.3083499,0.290539 -0.5888703,0.621152 -0.8282033,0.97069 -0.7936948,1.155476 -1.5628998,2.327652 -2.3677264,3.532108 0.4497233,0.466422 0.8593723,0.911693 1.2968506,1.325793 z"
     id="path4153" />
  <path
     style="fill:#930f17;fill-opacity:1"
     d="M 11.050817,14.980335 C 10.08792,19.050107 9.1294743,23.097617 8.1398609,27.277595 12.77958,24.287603 17.313548,21.366628 21.816347,18.46569 18.233032,17.30576 14.660849,16.14917 11.050817,14.981448 Z"
     id="path4151" />
  <path
     style="fill:#930f17;fill-opacity:1"
     d="m 30.352184,6.2029377 c -3.920607,0.6545478 -7.747708,1.2946242 -11.623789,1.9413798 1.320227,3.2115135 2.613739,6.3584645 3.945098,9.5955805 2.574777,-3.868288 5.098348,-7.658653 7.679805,-11.5369603 z"
     id="path4149" />
  <path
     style="fill:#ec1622;fill-opacity:1"
     d="m 11.212228,14.147678 c 3.530996,1.146572 6.990748,2.269767 10.5518,3.425245 -1.322454,-3.221533 -2.599267,-6.330636 -3.902797,-9.5043015 -2.220787,2.0304345 -4.407066,4.0296995 -6.649003,6.0790565 z"
     id="path4147" />
  <path
     style="fill:#990e16;fill-opacity:1"
     d="M 4.1190675,18.932111 C 2.866744,21.925442 1.6578343,24.816362 0.42666123,27.7596 2.7932743,27.68947 5.087531,27.621567 7.4597101,27.551436 6.3454204,24.677214 5.2533943,21.858652 4.1190675,18.930997 Z"
     id="path4145" />
  <path
     style="fill:#f36662;fill-opacity:1"
     d="m 7.5420851,25.505418 c 0.028943,-0.0056 0.057885,-0.01336 0.087941,-0.01893 0.8437877,-3.510959 1.7009337,-6.998541 2.5636459,-10.647533 -1.9235695,0.999632 -3.7580843,1.952511 -5.642692,2.933219 0.9617844,2.500195 1.9870199,5.13731 2.9922183,7.733238 z"
     id="path4143" />
  <path
     style="fill:#ec1622;fill-opacity:1"
     d="M 28.932885,5.6341045 C 27.809689,5.3368864 26.686494,5.0385551 25.563299,4.7424502 23.94808,4.3183299 22.331748,3.8986625 20.717642,3.4700894 20.516157,3.416657 20.37033,3.3810358 20.251221,3.624821 c -0.569946,1.1688352 -1.158816,2.3287652 -1.737669,3.4931477 -0.01781,0.035621 -0.01448,0.082375 -0.02783,0.1725424 3.497601,-0.529872 6.971824,-1.0564044 10.444935,-1.5829369 0.0012,-0.02449 0.0012,-0.04898 0.0022,-0.073469 z"
     id="path4141" />
  <path
     style="fill:#990e16;fill-opacity:1"
     d="m 22.417462,2.9758391 c 3.015596,0.8348823 6.032304,1.6686515 9.153651,2.5324765 -0.52542,-1.4961092 -1.011878,-2.8831271 -1.512807,-4.3102193 -2.563645,0.5688332 -5.09501,1.1298741 -7.627486,1.690915 -0.0045,0.028943 -0.0089,0.056773 -0.01335,0.085715 z"
     id="path4139" />
  <path
     style="fill:#930f17;fill-opacity:1"
     d="m 8.3190823,28.595595 c -1.1343268,-0.130241 -2.2975962,-0.01006 -3.4475076,0.0089 -0.9450867,0.0167 -1.8890604,0.05232 -2.8330341,0.08126 -0.09796,0.0034 -0.1948059,0.02227 -0.2916522,0.126903 7.808933,0.722451 15.6178666,1.44379 23.4256856,2.166241 0.0056,-0.03451 0.01005,-0.07013 0.01558,-0.104636 C 22.684621,30.532517 20.1822,30.190772 17.678666,29.849028 14.559545,29.422681 11.445991,28.955146 8.3190783,28.594477 Z"
     id="path4137" />
  <path
     style="fill:#f36662;fill-opacity:1"
     d="M 0.58027951,25.065713 C 1.5865911,22.731382 2.5884498,20.393712 3.5992141,18.061606 3.7005131,17.82784 3.6927209,17.668656 3.4945755,17.480529 3.0715684,17.078672 2.6797303,16.644534 2.217762,16.164754 c -0.6244919,3.083499 -1.23339942,6.089075 -1.84230693,9.095765 0.0222637,0.01006 0.0456408,0.02115 0.0679034,0.03228 0.0467531,-0.07458 0.10352572,-0.145825 0.13803391,-0.225974 z"
     id="path4135" />
  <path
     style="fill:#f36662;fill-opacity:1"
     d="m 20.412632,2.3591394 c 1.69648,-0.4374784 3.418564,-0.7803368 5.129516,-1.1621562 0.110205,-0.024489 0.219297,-0.061225 0.328387,-0.092394 -0.0056,-0.02783 -0.01113,-0.055659 -0.0167,-0.083488 -2.410026,0.3239343 -4.821167,0.6489818 -7.353644,0.9896138 0.69017,0.3016709 1.222268,0.5265325 1.912438,0.3495375 z"
     id="path44" />
</svg>
